# xmcd
#
# Track frame offsets:
#	150
#	34546
#	66698
#	104846
#	131793
#	155484
#	180660
#	207021
#	234902
#	260923
#	291536
#	325427
#
# Disc length: 4765 seconds
#
# Revision: 1
# Processed by: cddbd v1.5.2PL0 Copyright (c) Steve Scherf et al.
# Submitted via: audiograbber 1.83.01
#
DISCID=c2129b0c
DTITLE=Various Artist - Confuzed Disco - disc 2
DYEAR=2006
DGENRE=Disco
TTITLE0=GazNevada - I.C. Love Affair (Munk Edit)
TTITLE1=N.O.I.A. - Do You Wanna Dance (Fabrizio Mammarella remix)
TTITLE2=Answering Service - Call Me Mr. Telephone (Linstrom and Prins Thomas Remi
TTITLE2=x)
TTITLE3=N.O.I.A. - True Love (Kaos Dub-edit]
TTITLE4=Confusional Quartet - Guerra in Africa (Scuola Furano Remix)
TTITLE5=A.I.M. - So Evil (close to the edge) [tomboy twist]
TTITLE6=N.O.I.A. - True Love [E-the-Hot remix]
TTITLE7=GazNevada - Oil Tubes [Kiki remix]
TTITLE8=N.O.I.A. - Stranger in a Strange Land [Franz and Shape remix]
TTITLE9=Neon - Lobotomy [Ajello remix]
TTITLE10=A.I.M. - Thailand Seeds [Maskio Vision 48 remix]
TTITLE11=Stupid Set - Hear the Rumble (Pinktronix Re-edit)
EXTD=
EXTT0=
EXTT1=
EXTT2=
EXTT3=
EXTT4=
EXTT5=
EXTT6=
EXTT7=
EXTT8=
EXTT9=
EXTT10=
EXTT11=
PLAYORDER=
